<?xml version="1.0" standalone="no"?>
<!DOCTYPE svg PUBLIC "-//W3C//DTD SVG 20010904//EN"
 "http://www.w3.org/TR/2001/REC-SVG-20010904/DTD/svg10.dtd">
<svg version="1.0" xmlns="http://www.w3.org/2000/svg"
 width="977.000000pt" height="977.000000pt" viewBox="0 0 977.000000 977.000000"
 preserveAspectRatio="xMidYMid meet">
<metadata>
Created by potrace 1.14, written by Peter Selinger 2001-2017
</metadata>
<g transform="translate(0.000000,977.000000) scale(0.100000,-0.100000)"
fill="#000000" stroke="none">
<path d="M6210 9680 c-4 -14 -22 -131 -46 -300 -3 -19 -9 -60 -15 -91 -5 -31
-12 -81 -15 -110 -3 -30 -7 -55 -8 -57 -2 -1 -117 -24 -257 -51 -140 -27 -263
-51 -274 -53 -13 -3 37 -33 150 -90 337 -170 336 -170 331 -198 -3 -14 -8 -54
-11 -90 -4 -35 -8 -67 -10 -70 -1 -3 -6 -36 -9 -75 -4 -38 -9 -83 -11 -100 -5
-34 -11 -79 -20 -150 l-7 -50 200 199 199 198 194 -87 c107 -49 222 -101 256
-116 l63 -28 -13 27 c-15 33 -175 348 -211 416 -31 59 -31 57 -3 88 12 13 65
71 117 129 52 57 122 133 155 169 66 71 96 107 80 98 -9 -5 -142 -29 -240 -43
-22 -4 -47 -8 -55 -10 -8 -3 -33 -7 -55 -11 -22 -3 -76 -12 -120 -19 -76 -13
-105 -9 -105 15 0 4 -56 103 -123 221 -68 118 -126 221 -130 229 -3 8 -6 13
-7 10z"/>
<path d="M4360 8823 c-103 -32 -146 -91 -136 -182 3 -31 8 -67 11 -81 10 -44
35 -184 41 -230 3 -25 8 -47 9 -50 2 -3 11 -46 19 -95 9 -50 18 -101 21 -115
2 -14 13 -77 25 -140 11 -63 22 -126 25 -140 5 -25 22 -119 31 -175 3 -16 14
-77 24 -135 24 -132 27 -146 46 -250 8 -47 22 -123 30 -170 9 -47 18 -94 20
-105 6 -37 24 -140 29 -165 3 -14 10 -52 15 -85 6 -33 13 -70 15 -82 4 -18
-10 -30 -95 -82 -56 -34 -103 -61 -105 -61 -2 0 -31 -18 -64 -40 -33 -22 -62
-40 -65 -40 -3 0 -60 -33 -128 -73 -68 -41 -150 -90 -183 -109 -120 -70 -762
-448 -1063 -626 -100 -59 -138 -104 -145 -172 -12 -103 55 -179 173 -196 30
-4 62 -8 70 -10 8 -1 38 -5 65 -8 28 -4 97 -13 155 -21 138 -20 151 -22 250
-35 47 -7 96 -14 110 -15 14 -2 50 -7 80 -10 30 -4 57 -8 60 -10 3 -2 39 -6
80 -10 41 -4 78 -9 81 -10 3 -2 27 -6 55 -9 27 -4 60 -8 74 -11 14 -2 49 -7
79 -10 30 -4 63 -8 74 -11 10 -2 45 -6 76 -10 31 -3 65 -8 76 -10 11 -2 58 -9
105 -15 47 -6 94 -13 105 -14 49 -7 184 -26 220 -30 21 -3 40 -7 42 -9 3 -3
-875 -881 -3248 -3248 -708 -706 -1294 -1298 -1304 -1317 -22 -44 -15 -129 14
-170 26 -36 96 -71 142 -71 94 0 -17 -106 2083 1998 1086 1087 2096 2100 2244
2249 149 150 273 273 275 273 4 0 27 -91 43 -165 1 -5 16 -75 34 -155 17 -80
34 -154 36 -165 2 -11 20 -90 39 -175 20 -85 40 -175 45 -200 5 -25 11 -54 14
-65 12 -50 48 -212 52 -234 3 -12 12 -53 20 -90 9 -36 17 -73 19 -81 2 -8 9
-37 15 -65 6 -27 14 -61 16 -75 16 -83 66 -285 75 -303 29 -55 100 -97 164
-97 39 0 100 27 127 57 15 16 151 290 253 508 18 39 73 153 122 255 50 102
111 228 135 280 80 166 153 320 252 525 53 110 111 230 129 267 l32 68 55 -5
c51 -5 97 -10 190 -20 19 -2 71 -7 115 -10 44 -4 98 -8 120 -10 22 -2 94 -9
160 -15 66 -6 138 -13 160 -15 22 -2 72 -7 110 -10 39 -3 93 -8 120 -11 99 -9
269 -24 335 -30 59 -5 155 -14 205 -19 22 -3 72 -7 110 -10 39 -3 88 -8 110
-10 22 -2 69 -7 105 -10 36 -3 91 -8 122 -11 94 -10 156 23 198 106 21 42 20
112 -3 156 -9 17 -40 52 -69 78 -29 27 -109 102 -178 166 -208 196 -423 397
-480 450 -19 18 -91 85 -160 150 -69 65 -141 132 -160 150 -19 18 -91 85 -160
150 -69 64 -141 132 -160 150 -90 83 -139 131 -145 139 -4 7 307 751 405 966
10 22 57 132 105 245 48 113 93 219 100 235 8 17 57 131 110 253 107 253 114
284 69 352 -30 46 -101 83 -157 82 -35 -1 -138 -50 -348 -165 -24 -13 -78 -42
-119 -64 -41 -23 -244 -132 -450 -243 -206 -111 -409 -220 -450 -242 -41 -22
-127 -68 -190 -103 -63 -34 -162 -87 -220 -118 l-105 -55 -30 25 c-17 14 -46
39 -65 57 -19 18 -93 83 -165 146 -71 62 -132 116 -135 119 -3 3 -79 71 -170
151 -91 79 -167 147 -170 150 -3 3 -61 55 -130 115 -69 60 -127 112 -130 115
-3 3 -43 39 -90 80 -47 41 -98 86 -115 101 -16 15 -39 36 -51 46 -28 24 -141
124 -229 203 -87 78 -155 108 -205 93z m510 -823 c3 -3 39 -35 80 -70 41 -36
77 -67 80 -70 3 -3 23 -21 45 -40 23 -19 74 -65 115 -101 41 -37 158 -140 260
-229 102 -89 214 -188 250 -220 226 -199 243 -210 318 -210 33 0 113 39 372
182 25 14 124 68 220 120 531 289 734 400 815 443 50 26 96 52 103 58 7 5 15
8 17 5 5 -4 -77 -205 -135 -333 -9 -22 -61 -143 -115 -270 -53 -126 -105 -248
-115 -270 -10 -22 -77 -179 -150 -350 -138 -323 -152 -372 -130 -440 14 -42
24 -53 290 -305 101 -96 229 -218 284 -271 56 -53 117 -111 136 -129 19 -18
114 -108 210 -200 96 -92 205 -195 243 -230 68 -64 82 -85 50 -76 -10 2 -67 8
-128 11 -60 4 -117 8 -125 10 -8 1 -60 6 -115 10 -55 4 -116 8 -135 10 -19 2
-73 6 -120 10 -47 3 -107 8 -134 10 -27 3 -85 7 -130 10 -44 3 -103 7 -131 10
-27 3 -79 7 -115 10 -97 7 -219 16 -270 20 -195 16 -257 17 -293 1 -49 -20
-83 -58 -117 -131 -15 -33 -73 -152 -128 -265 -161 -332 -265 -544 -347 -715
-192 -400 -219 -455 -227 -455 -4 0 -8 7 -8 16 0 8 -9 52 -19 97 -11 45 -41
177 -66 292 -26 116 -67 300 -91 410 -25 110 -63 281 -85 380 -110 494 -102
466 -134 503 -30 36 -81 57 -160 66 -33 4 -123 16 -200 27 -77 11 -160 22
-185 25 -25 2 -56 6 -70 9 -14 2 -47 7 -75 11 -27 3 -61 7 -75 9 -45 7 -213
30 -287 40 -24 3 -62 8 -85 11 -24 3 -52 7 -63 9 -42 5 -131 17 -155 20 -25 4
-162 22 -222 30 -18 2 -58 7 -88 11 -107 13 -111 8 192 190 155 93 292 174
303 180 11 6 52 30 90 54 39 24 79 48 90 54 24 14 325 194 363 218 15 9 38 23
52 31 259 144 316 193 322 274 2 25 -8 111 -17 153 -3 13 -15 73 -39 205 -3
17 -22 116 -41 220 -20 105 -38 201 -40 215 -3 14 -14 75 -25 135 -12 61 -25
134 -31 163 -19 107 -54 297 -88 477 -11 61 -21 114 -21 118 0 7 202 -163 230
-193z"/>
<path d="M2480 7794 c0 -5 5 -27 10 -49 5 -22 11 -51 13 -65 33 -176 48 -259
52 -280 14 -74 25 -135 25 -145 0 -9 -71 -56 -145 -95 -69 -36 -335 -193 -332
-196 3 -3 95 -18 177 -29 25 -3 70 -10 100 -15 30 -5 75 -12 100 -15 25 -3 56
-8 70 -10 14 -2 43 -7 64 -10 47 -7 43 -3 49 -40 3 -16 24 -106 47 -200 22
-93 47 -198 54 -233 8 -35 16 -66 19 -69 3 -3 12 10 20 28 8 19 40 90 72 159
59 131 66 146 112 248 l28 64 85 -6 c47 -4 99 -8 115 -10 17 -2 59 -7 95 -11
36 -3 76 -8 90 -10 14 -2 59 -7 100 -10 90 -8 104 -30 -136 208 l-182 180 14
34 c8 18 21 50 31 71 9 20 17 39 18 42 4 10 36 86 45 105 18 37 110 257 110
261 0 4 -79 -37 -347 -181 l-152 -82 -163 144 c-255 227 -258 230 -258 217z"/>
<path d="M8605 7003 c2 -38 7 -104 9 -148 14 -221 18 -282 21 -308 3 -32 29
-17 -310 -171 -115 -53 -205 -96 -200 -96 6 0 87 -21 180 -45 94 -25 208 -54
255 -66 47 -12 89 -25 93 -29 5 -4 10 -32 13 -61 2 -30 6 -67 8 -84 3 -16 7
-61 11 -100 3 -38 8 -83 10 -100 2 -16 7 -61 11 -100 9 -92 9 -94 15 -100 3
-3 72 101 154 230 128 204 150 234 169 230 11 -3 77 -18 146 -35 69 -16 139
-31 155 -35 17 -3 73 -16 125 -30 52 -13 95 -23 97 -21 1 1 -14 23 -35 48 -20
25 -49 60 -64 79 -15 19 -76 95 -136 169 l-109 134 20 36 c11 19 28 51 39 70
11 19 64 112 117 205 54 94 97 172 96 173 -2 2 -119 -39 -259 -92 -141 -53
-258 -96 -259 -96 -2 0 -46 48 -98 106 -52 59 -109 123 -126 143 -18 20 -56
64 -85 98 -29 34 -56 62 -60 62 -5 1 -6 -29 -3 -66z"/>
<path d="M7668 4167 c-7 -7 -40 -37 -73 -66 -33 -30 -100 -90 -149 -135 -48
-45 -98 -87 -110 -94 -22 -14 -17 -16 -384 189 l-52 29 14 -32 c7 -18 19 -46
26 -63 7 -16 16 -39 21 -50 5 -11 35 -83 68 -160 l59 -140 -172 -173 c-94 -96
-162 -172 -151 -169 11 3 58 8 105 11 47 4 96 8 110 11 14 2 57 7 95 10 39 3
89 8 112 11 l41 6 45 -93 c148 -309 165 -342 171 -323 3 10 17 73 31 139 15
66 28 129 31 140 2 11 7 34 10 50 10 55 27 120 33 127 6 6 27 9 146 24 28 3
111 13 185 22 l135 17 -206 124 -206 124 9 46 c5 25 10 57 13 71 29 170 35
211 41 245 3 22 9 57 14 78 9 41 8 43 -12 24z"/>
</g>
</svg>
